<?xml version="1.0" encoding="UTF-8"?>
<svg id="Layer_1" data-name="Layer 1" xmlns="http://www.w3.org/2000/svg" viewBox="0 0 1080 234.89">
  <defs>
    <style>
      .cls-1, .cls-2 {
        fill: #5b7553;
        stroke: #5b7553;
        stroke-miterlimit: 10;
      }

      .cls-2 {
        stroke-width: 17px;
      }
    </style>
  </defs>
  <path class="cls-1" d="M284.15,128.01c-12.43,1.01,3.11,21.96,4.41,26.42,1.96,6.72.67,15.38-1.85,21.82-1.09,2.77-10.62,15.22-2.81,15.32,9.34.12,22.45-26.27,22.43-34.34-.02-7.19-7.32-12.39-11.44-17.55-2.74-3.43-5.54-12.09-10.74-11.67ZM398.53,144.76c-8.43,2.8,3.01,15.49,4.4,20.52.96,3.47,1.84,22.75,7.42,21.45,4.07-5.85,7.79-18.43,6.12-25.36-1.16-4.78-12.06-18.56-17.94-16.61ZM506.25,165.22c-3.52,2.2,6.44,20.76,9.48,22.15,3.27,1.5,6.57-1.78,7.17-4.89,2.22-11.46-5.01-19.63-16.65-17.26Z"/>
  <g>
    <path class="cls-1" d="M1049.26,25.4v180.83h-401.51c-3.4,0-6.9-19.79-8.44-23.49-5.7-13.69-26.05-23.64-40.33-28.54-8.9-3.05-32.92-6.15-37.81-10.74-5.92-5.56-3.69-13.5-1.31-20.07,8.69-23.92,32.26-6.83,49.94-12.9,14.76-5.07,8.32-15.12-6.58-13.95-18.41,1.44-38.85,3.77-56.83-3.16-18.97-7.3-38.77-11.75-59.84-9.06-5.07.65-10.71,3.32-15.77,3.33-6.47,0-11.73-3.75-16.93-4.49-13.2-1.89-30.88.08-44.34-1.31-12.48-1.29-30.87-6.96-43.8-9.65-15.21-3.16-39.41-2.05-36.27-23.16.78-5.24,5.91-9.06,2.16-14.53-.81-1.18-8.35-5.91-13.92-9.11h-23.66c-4.9,7.57-3.49,21.47-8.02,23.57-3.53,1.64-17.37-.13-21.75-1.08-4.68-1.01-16.94-5.23-20.81-7.52-9.7-5.75-9.31-10.68-16.97-14.97H11.48v198.18l1.81,1.68h1041.4c.67,0,9.37-1.35,10.3-1.62,1.38-.4,2.55-1.35,3.54-2.3V25.4h-19.26ZM536.4,107.73c1.78,9.69-16.25,8.93-19.26,1.66,6.14-3.2,12.65-2.47,19.26-1.66ZM523.14,101h-13.83c-3.47-6.56,14.14-6.48,13.83,0ZM530.01,147.22c10.44,11.89-22.1,17.57-27.62,4.99-7.76-17.68,23.36-9.84,27.62-4.99ZM486.45,104.36c4.53,0,7.31,3.94,6.6,7.83-5.72,1.62-10.65-3.59-6.6-7.83ZM438.98,104.46c9.57-1.03,11.45,7.43,8.14,14.29l-8.39-.49c-1.67-4.47-1.61-9.4.25-13.8ZM312.44,44.41c7.96,3.82-1.55,12.75-5.72,8.18-2.82-3.09.2-10.83,5.72-8.18ZM259.79,60.98c5.75-5.28,20.32,2.74,26.45,4.52,12.87,3.73,25.32,7.05,38.32,10.26,25.18,6.22,50.52,9.79,75.78,15.74,6.28,1.48,23.06,4.92,21.1,12.99-2.44,10.08-27.67-.51-34.08-2.04-34.82-8.33-69.19-18.06-103.85-26.58-5-1.23-32.03-7.27-23.72-14.89ZM304.65,106.51c-13.07-.09-35.79,6.95-42.35-7.18-.02-4.42,13.28-7.6,17.36-8.11,5.17-.65,14.96-.85,20.05-.19,3.81.49,21.57,6.02,22.95,8.88,5.89,12.15-11.97,6.66-18.01,6.61ZM616.45,206.23c-34.91-1.32-71.26,1.76-105.99.05-9.74-.48-21.8-3.52-31.25-3.5-7.32.02-16.58,2.81-24.08,2.81-4.83,0-9.59-1.59-14.4-1.67-8.48-.14-17.38,4.15-24.85-.38-4.86-5.51,5.89-17.47,7.07-22.75,4.12-18.37-21.67-33.85-37.43-39.69-5.43-2.01-15.92-6.3-20.68-1.99l-1.34,2.77,1.04,2.49c11.22,3.88,36.08,13.65,40.87,24.14,4.94,10.82,1.24,26.66-4.65,36.68l-185.2-.09c-3.37-.06-4.28-4.27-1.81-6.16,9.61-3.85,33.49-8.26,40.28-15.16,6.66-6.76,5.61-18.23-1.82-23.95-12.32-9.48-55.74-10.02-72.63-11.95-4.88-.56-10.05-2.59-14.71-3.11-16.63-1.85-50.4-.85-63-9.71-9.36-6.58-17.94-23.23-.71-25.13,15.14-1.67,43.14-.7,59.07-.02,5.48.23,11.09,2.18,16.75,2.34,7.99.22,19.07-.84,27.75-1.07,6.09-.16,11.33-2.02,17.96-1.12,16.86,2.28,8,15.2,14.51,20.09,4.33,3.25,16.63,4.01,19.59,6.96,1.67,1.66,3.18,9.42,5.08,12.63,3.02,5.09,8.62,7.55,11.11,13.18,2.69,6.08,2.35,13.52,4.59,19.81,9.11-.46,10.61-15.45,8.79-22.18-1.94-7.14-10.87-12.29-6.22-20.2,13.39-2.84,26.58,10.38,28.4,21.96,1.14,7.26.85,15.59-3.49,21.92-2.02,2.95-10.41,8.24-9.43,11.34,20.62,10.69,26.54-24.58,25.26-36.9-2.46-23.74-20.55-21.59-37.37-30.18-11.5-5.87-2.13-12.02,7.88-11.9,16.27.2,37.21-.55,52.87,2.43,8.81,1.67,17.64,5.96,26.89,7.46,21.75,3.53,43.47,7.88,65.01,11.19,13.19,2.03,24.28-1.35,36.75,2.77,11.74,3.88,9.02,7.88,15.31,14.87,8,8.88,13.87,8.07,16.72,22.51,1.11,5.62-1.27,26.82,8.56,22.3,3.67-1.69,7.22-18.52,9.78-23.4,8.6-16.44,21.49-25.43,42.06-21.47,16.8,9.68,52.3,11.37,60.78,29.68,3.99,8.62,2.3,20.66-9.68,21.32Z"/>
    <path class="cls-1" d="M336.13,138.2c5.2-.39,8,7.66,10.74,10.85,4.12,4.8,11.41,9.64,11.44,16.32.02,7.5-13.09,32.04-22.43,31.93-7.8-.09,1.72-11.66,2.81-14.24,2.53-5.99,3.81-14.04,1.85-20.29-1.3-4.15-16.84-23.63-4.41-24.57Z"/>
    <path class="cls-1" d="M450.51,153.77c5.87-1.81,16.78,11,17.94,15.44,1.68,6.44-2.05,18.14-6.12,23.58-5.58,1.21-6.47-16.72-7.42-19.94-1.39-4.68-12.83-16.48-4.4-19.08Z"/>
    <path class="cls-1" d="M558.24,172.8c11.64-2.19,18.86,5.4,16.65,16.05-.6,2.89-3.9,5.94-7.17,4.54-3.04-1.3-13-18.55-9.48-20.6Z"/>
  </g>
  <g>
    <path class="cls-1" d="M651.89,55.47h-.2c-7.97,0-9.73,4.8-10.95,8.38-.47,1.42-.81,1.69-1.49,1.69s-1.08-.41-1.08-1.15l.07-5.07-.13-5.41c0-1.49.81-2.03,2.5-2.03,3.24,0,10.27.81,18.65.81s16.02-.81,18.65-.81c1.69,0,2.5.54,2.5,2.03l-.13,5.41.07,5.07c0,.74-.34,1.15-1.01,1.15s-1.08-.27-1.55-1.69c-1.22-3.58-2.97-8.38-10.95-8.38h-.2c-2.1,0-2.97,1.08-2.97,3.04v44.67c0,3.51,2.5,4.19,4.26,4.6.88.2,1.08.61,1.08,1.15,0,.47-.27,1.08-1.15,1.08-.74,0-4.73-.41-8.58-.41s-7.84.41-8.58.41c-.88,0-1.15-.61-1.15-1.08,0-.54.2-.95,1.08-1.15,1.89-.41,4.26-1.08,4.26-4.6v-44.67c0-1.96-.88-3.04-2.97-3.04Z"/>
    <path class="cls-1" d="M674.66,87.71c0-13.52,7.23-22.37,18.38-22.37s18.38,8.85,18.38,22.37c0,14.19-7.23,23.38-18.38,23.38s-18.38-9.19-18.38-23.38ZM702.64,87.71c0-11.69-3.78-19.33-9.6-19.33s-9.6,7.64-9.6,19.33c0,12.3,3.79,20.34,9.6,20.34s9.6-8.04,9.6-20.34Z"/>
    <path class="cls-1" d="M717.57,71.56c-.74-.2-.95-.61-.95-1.15,0-.47.13-.95,1.01-1.08,2.64-.41,6.83-1.55,8.65-3.38.41-.41.54-.47.88-.47.54,0,.74.2.74.68v4.66c0,.61.27.54.74,0,2.84-3.31,6.42-5.47,10.41-5.47,7.23,0,11.49,4.8,11.49,12.98v24.87c0,3.51,2.1,4.26,3.58,4.6.88.2,1.08.61,1.08,1.15,0,.47-.27,1.08-1.15,1.08-.74,0-4.05-.41-7.57-.41s-6.83.41-7.57.41c-.88,0-1.15-.61-1.15-1.08,0-.54.2-.95,1.08-1.15,1.49-.34,3.58-1.08,3.58-4.6v-24.87c0-5.27-2.09-8.04-6.08-8.04-4.66,0-8.45,4.12-8.45,9.33v23.58c0,3.51,2.1,4.26,3.58,4.6.88.2,1.08.61,1.08,1.15,0,.47-.27,1.08-1.15,1.08-.74,0-4.05-.41-7.64-.41s-6.76.41-7.5.41c-.88,0-1.15-.61-1.15-1.08,0-.54.2-.95,1.08-1.15,1.49-.34,3.58-1.08,3.58-4.6v-28.79c0-1.89-.74-2.43-2.23-2.84Z"/>
    <path class="cls-1" d="M776.57,65.34c8.25,0,13.65,6.08,13.65,16.42,0,2.57-.68,3.45-2.23,3.45h-19.6c-.41,0-.61.2-.61.47l-.07,2.64c0,11.15,4.33,18.38,11.69,18.38,3.51,0,5.88-1.28,8.58-3.72.54-.47,1.15-.54,1.62-.2.47.34.54.95.27,1.49-2.03,4.12-7.03,6.76-12.71,6.76-11.08,0-18.25-8.72-18.25-22.1,0-14.26,6.96-23.59,17.64-23.59ZM783.6,75.95c0-4.39-2.64-7.23-6.42-7.23-4.93,0-8.04,4.26-9.06,12.43-.07.47.13.68.54.68h8.04c4.33,0,6.89-2.16,6.89-5.88Z"/>
    <path class="cls-1" d="M859.55,107.98c.81.2,1.22.47,1.22,1.08,0,.68-.41.95-1.28.95-2.16,0-3.92-.34-7.37-.34-3.04,0-6.49.34-9.19.34-.74,0-1.08-.41-1.08-1.01,0-.68.47-.88,1.22-1.01,2.97-.54,1.62-2.16-.07-4.05l-1.62-1.96c-3.04,6.22-7.37,9.12-13.52,9.12-9.39,0-15.95-7.16-15.95-17.03,0-6.89,3.58-12.03,10.75-16.9-3.31-5.47-4.93-10.2-4.93-14.19,0-7.3,6.29-12.17,13.38-12.17,8.04,0,12.17,4.53,12.17,10.88,0,5.07-2.7,8.65-11.69,13.79.95,1.42,6.01,8.04,11.83,15.48,1.08-2.43,2.5-6.42,2.5-7.97,0-3.11-2.16-3.99-5.74-4.73-.68-.14-1.01-.68-1.01-1.28s.47-1.15,1.01-1.15c1.22,0,3.72.27,8.52.27,4.39,0,6.01-.27,7.43-.27.68,0,1.01.54,1.01,1.08,0,.68-.34,1.15-1.35,1.35-3.11.61-4.66,1.69-6.42,5.74l-4.12,9.26c2.97,3.72,6.01,7.5,8.79,10.81,2.09,2.5,3.51,3.45,5.54,3.92ZM829.48,107.04c4.53,0,8.11-2.64,10.14-7.23-5.34-6.76-14.19-18.31-15.41-20.07-2.5,2.7-4.6,6.89-4.6,13.25,0,9.26,4.33,14.06,9.87,14.06ZM830.36,73.11c4.33-3.51,5.81-6.08,5.81-11.29s-1.82-7.91-5-7.91c-3.38,0-5.61,2.77-5.61,6.96,0,3.72,2.16,7.77,4.8,12.23Z"/>
    <path class="cls-1" d="M889.15,55.47h-.2c-7.97,0-9.73,4.8-10.95,8.38-.47,1.42-.81,1.69-1.49,1.69s-1.08-.41-1.08-1.15l.07-5.07-.13-5.41c0-1.49.81-2.03,2.5-2.03,3.24,0,10.27.81,18.65.81s16.02-.81,18.65-.81c1.69,0,2.5.54,2.5,2.03l-.13,5.41.07,5.07c0,.74-.34,1.15-1.01,1.15s-1.08-.27-1.55-1.69c-1.22-3.58-2.97-8.38-10.95-8.38h-.2c-2.1,0-2.97,1.08-2.97,3.04v44.67c0,3.51,2.5,4.19,4.26,4.6.88.2,1.08.61,1.08,1.15,0,.47-.27,1.08-1.15,1.08-.74,0-4.73-.41-8.58-.41s-7.84.41-8.58.41c-.88,0-1.15-.61-1.15-1.08,0-.54.2-.95,1.08-1.15,1.89-.41,4.26-1.08,4.26-4.6v-44.67c0-1.96-.88-3.04-2.97-3.04Z"/>
    <path class="cls-1" d="M918.41,68.65c-.88-.2-1.08-.61-1.08-1.15,0-.47.27-1.08,1.15-1.08.74,0,3.24.34,5.41.34,2.5,0,4.26-.34,5.07-.34s1.15.34,1.15,1.08v30.61c0,5.27,2.16,8.04,6.35,8.04,3.24,0,5.95-2.16,7.43-5.07.54-1.15.74-2.3.74-3.45v-24.4c0-3.51-2.09-4.26-3.58-4.59-.88-.2-1.08-.61-1.08-1.15,0-.47.27-1.08,1.15-1.08.74,0,3.24.34,5.41.34,2.5,0,4.26-.34,5.07-.34s1.15.34,1.15,1.08v34.53c0,1.89.74,2.43,2.23,2.84.74.2.95.61.95,1.15,0,.47-.13.95-1.01,1.08-2.64.41-6.83,1.55-8.65,3.38-.41.41-.54.47-.88.47-.54,0-.74-.2-.74-.68v-4.66c0-.61-.13-.68-.47-.27-2.84,3.45-6.56,5.74-10.68,5.74-7.23,0-11.49-4.8-11.49-12.98v-24.87c0-3.51-2.09-4.26-3.58-4.59Z"/>
    <path class="cls-1" d="M962.75,71.56c-.74-.2-.95-.61-.95-1.15,0-.47.13-.95,1.01-1.08,2.63-.41,6.83-1.55,8.65-3.38.41-.41.54-.47.88-.47.54,0,.74.2.74.68v5.34c0,.61.14.61.41.07,1.89-3.65,5.07-6.22,8.31-6.22s5.34,2.03,5.34,5.2c0,2.3-1.15,3.65-3.04,3.65-3.38,0-3.58-3.65-5.81-3.65-1.69,0-3.38,1.96-4.46,4.46-.54,1.35-.74,2.64-.74,3.99v24.19c0,3.51,2.37,4.06,4.93,4.6.88.2,1.08.61,1.08,1.15,0,.47-.27,1.08-1.15,1.08-.74,0-5.07-.41-8.99-.41-3.45,0-6.76.41-7.5.41-.88,0-1.15-.61-1.15-1.08,0-.54.2-.95,1.08-1.15,1.49-.34,3.58-1.08,3.58-4.6v-28.79c0-1.89-.74-2.43-2.23-2.84Z"/>
    <path class="cls-1" d="M991.6,71.56c-.74-.2-.95-.61-.95-1.15,0-.47.13-.95,1.01-1.08,2.64-.41,6.83-1.55,8.65-3.38.41-.41.54-.47.88-.47.54,0,.74.2.74.68v4.66c0,.61.27.54.74,0,2.84-3.31,6.42-5.47,10.41-5.47,7.23,0,11.49,4.8,11.49,12.98v24.87c0,3.51,2.1,4.26,3.58,4.6.88.2,1.08.61,1.08,1.15,0,.47-.27,1.08-1.15,1.08-.74,0-4.05-.41-7.57-.41s-6.83.41-7.57.41c-.88,0-1.15-.61-1.15-1.08,0-.54.2-.95,1.08-1.15,1.49-.34,3.58-1.08,3.58-4.6v-24.87c0-5.27-2.09-8.04-6.08-8.04-4.66,0-8.45,4.12-8.45,9.33v23.58c0,3.51,2.1,4.26,3.58,4.6.88.2,1.08.61,1.08,1.15,0,.47-.27,1.08-1.15,1.08-.74,0-4.05-.41-7.64-.41s-6.76.41-7.5.41c-.88,0-1.15-.61-1.15-1.08,0-.54.2-.95,1.08-1.15,1.49-.34,3.58-1.08,3.58-4.6v-28.79c0-1.89-.74-2.43-2.23-2.84Z"/>
    <path class="cls-1" d="M676.76,134.43c-1.08-.2-1.42-.88-1.42-1.55s.41-1.42,1.49-1.42c1.35,0,3.18.27,10.21.27,5.07,0,8.79-.27,11.22-.27,10.88,0,17.98,5.88,17.98,14.94,0,6.56-3.65,11.76-10,14.46,2.84,1.49,5.81,8.58,7.64,13.52.95,2.57,2.37,6.35,3.92,9.6.88,1.83,2.09,2.23,4.33,2.7.88.2,1.35.74,1.35,1.55s-.54,1.35-1.35,1.35c-1.15,0-3.24-.13-6.15-.13-3.45,0-6.01.13-6.62.13-1.62,0-2.57-.47-3.11-1.62-1.28-2.91-4.12-10.41-5-13.18-3.18-10.07-3.51-12.3-6.69-12.3-1.35,0-1.96.41-1.96,1.62v19.33c0,2.16,1.96,2.77,4.05,3.24.88.2,1.28.74,1.28,1.55,0,.74-.47,1.35-1.35,1.35-.95,0-4.53-.41-9.6-.41-5.68,0-9.19.41-10.21.41-.88,0-1.35-.61-1.35-1.35,0-.81.41-1.35,1.28-1.55,2.09-.47,4.05-1.08,4.05-3.24v-45.82c0-2.16-2.23-2.84-3.99-3.18ZM703.72,146.8c0-7.64-2.77-11.62-8.04-11.62-2.03,0-3.11.61-3.11,2.57v17.84c0,3.04,1.62,3.65,4.46,3.65,4.39,0,6.69-4.26,6.69-12.44Z"/>
    <path class="cls-1" d="M722.51,134.5c-1.28-.27-1.76-.74-1.76-1.55s.68-1.49,1.82-1.49l5.68.2c4.26.13,9.8.07,12.77.07,5.27,0,10.75-.27,14.26-.27,1.69,0,2.5.54,2.5,2.03,0,1.62-.13,3.04-.13,4.93l.07,5c0,.74-.54,1.01-1.15,1.01-.74,0-1.35-.27-1.96-1.69-1.69-3.92-4.6-7.37-11.08-7.37-3.65,0-5.54.68-5.54,3.92v14.8c0,2.23.27,2.64,3.24,2.64h3.18c3.92,0,5.27-3.92,5.88-6.08.34-1.15.74-1.55,1.55-1.55.68,0,1.42.27,1.42,1.55,0,1.08-.27,5.34-.27,7.97,0,2.37.27,6.29.27,7.43,0,1.01-.54,1.35-1.28,1.35-.81,0-1.35-.34-1.69-1.49-.68-2.16-1.96-5.34-5.88-5.34h-3.18c-2.97,0-3.24.34-3.24,2.64v17.64c0,3.58,1.76,4.8,6.42,4.8,6.89,0,9.12-4.05,10.88-9.39.47-1.42.95-1.69,1.69-1.69s1.35.34,1.35,1.69l-.14,5.88c0,2.16.14,3.51.14,4.66,0,2.09-1.08,2.77-3.45,2.77-3.11,0-7.57-.27-13.52-.27-3.31,0-9.46-.07-13.11.07l-5.68.2c-1.15,0-1.82-.68-1.82-1.49s.47-1.28,1.76-1.55c1.76-.41,3.65-.95,3.65-2.97v-46.09c0-2.03-1.89-2.57-3.65-2.97Z"/>
    <path class="cls-1" d="M800.49,145.58c-.81,0-1.28-.34-1.62-1.22-1.96-5.47-5.68-9.93-10.41-9.93-8.04,0-13.25,10.27-13.25,26.09s5.47,26.09,13.92,26.09c5.27,0,7.97-4.53,10.34-11.49.34-1.01.74-1.42,1.55-1.42.88,0,1.35.41,1.35,1.35,0,1.62-.13,3.11-.13,5.95l.13,4.66c0,2.5-6.08,5-13.25,5-16.02,0-26.42-11.89-26.42-30.14s10.14-30.14,25.75-30.14c7.3,0,13.25,2.5,13.25,5,0,.61-.13,1.89-.13,3.78s.13,3.92.13,5.2c0,.95-.61,1.22-1.22,1.22Z"/>
    <path class="cls-1" d="M807.11,160.58c0-18.31,9.53-30.21,24.13-30.21s24.06,11.89,24.06,30.21-9.46,30.07-24.06,30.07-24.13-11.83-24.13-30.07ZM842.8,160.58c0-16.49-4.26-26.15-11.56-26.15s-11.62,9.66-11.62,26.15,4.26,26.02,11.62,26.02,11.56-9.6,11.56-26.02Z"/>
    <path class="cls-1" d="M859.42,134.43c-1.08-.2-1.42-.88-1.42-1.55s.41-1.42,1.49-1.42c1.35,0,3.18.27,10.21.27,5.07,0,8.79-.27,11.22-.27,10.88,0,17.98,5.88,17.98,14.94,0,6.56-3.65,11.76-10,14.46,2.84,1.49,5.81,8.58,7.64,13.52.95,2.57,2.37,6.35,3.92,9.6.88,1.83,2.09,2.23,4.33,2.7.88.2,1.35.74,1.35,1.55s-.54,1.35-1.35,1.35c-1.15,0-3.24-.13-6.15-.13-3.45,0-6.01.13-6.62.13-1.62,0-2.57-.47-3.11-1.62-1.28-2.91-4.12-10.41-5-13.18-3.18-10.07-3.51-12.3-6.69-12.3-1.35,0-1.96.41-1.96,1.62v19.33c0,2.16,1.96,2.77,4.05,3.24.88.2,1.28.74,1.28,1.55,0,.74-.47,1.35-1.35,1.35-.95,0-4.53-.41-9.6-.41-5.68,0-9.19.41-10.21.41-.88,0-1.35-.61-1.35-1.35,0-.81.41-1.35,1.28-1.55,2.09-.47,4.05-1.08,4.05-3.24v-45.82c0-2.16-2.23-2.84-3.99-3.18ZM886.38,146.8c0-7.64-2.77-11.62-8.04-11.62-2.03,0-3.11.61-3.11,2.57v17.84c0,3.04,1.62,3.65,4.46,3.65,4.39,0,6.69-4.26,6.69-12.44Z"/>
    <path class="cls-1" d="M904.42,188.16c0-.74.34-1.35,1.42-1.55,1.76-.34,3.99-1.01,3.99-3.18v-45.82c0-2.16-2.23-2.84-3.99-3.18-1.08-.2-1.42-.81-1.42-1.55,0-.68.41-1.42,1.49-1.42.95,0,4.19.27,10.34.27,4.66,0,9.26-.27,12.5-.27,15.41,0,24.4,10.75,24.4,29.13s-8.99,28.99-24.4,28.99c-3.04,0-7.3-.2-11.49-.2-6.22,0-9.6.2-11.35.2-1.08,0-1.49-.74-1.49-1.42ZM940.65,160.58c0-16.69-4.66-25.41-13.65-25.41-3.79,0-5.34.88-5.34,4.8v41.5c0,3.85,2.23,4.39,5.54,4.39,8.85,0,13.45-8.65,13.45-25.28Z"/>
    <path class="cls-1" d="M974.64,134.43c-3.58,0-5.88,2.5-5.88,6.35,0,13.18,23.25,13.85,23.25,33.39,0,10-7.5,16.49-18.04,16.49-9.39,0-14.94-3.11-14.94-6.01,0-1.76.27-4.19.27-7.97,0-2.77-.27-4.6-.27-5.81,0-1.15.68-1.69,1.55-1.69s1.35.27,1.62,1.35c2.7,10.68,6.08,16.08,12.91,16.08,4.26,0,6.69-2.7,6.69-7.37,0-17.37-23.11-16.62-23.11-33.79,0-9.12,6.76-15.07,17.1-15.07,5.95,0,13.52,2.03,13.52,4.93,0,1.62-.13,4.05-.13,7.84l.13,5.27c0,1.08-.61,1.42-1.28,1.42-.74,0-1.55-.27-1.82-2.03-1.08-7.84-5.81-13.38-11.56-13.38Z"/>
  </g>
  <line class="cls-2" x1="11.48" y1="25.4" x2="1068.52" y2="25.4"/>
</svg>