<?xml version="1.0" encoding="UTF-8"?>
<svg id="Layer_1" data-name="Layer 1" xmlns="http://www.w3.org/2000/svg" viewBox="0 0 1080 377.8">
  <defs>
    <style>
      .cls-1 {
        fill: #f0943c;
      }
    </style>
  </defs>
  <g>
    <path class="cls-1" d="M1042.32,152.39c.29.5,2.3-.11,2,1.96-.37,2.53-3.06,5-3.54,9.39-.97,8.89.42,19.42.11,27.98-.07,2-1.95,1.49-2.63,3.3-3.22,8.53,1.43,19.84,2.58,28.06.79,5.62-.74,12.7.04,18.6.39,2.99,2.68,6.4,2.86,8.75.14,1.77-2.24,3.15-1.82,6.38.75,5.82,6.23,7.95,2.43,17.66-1.61,4.11-11.56,9.09-15.91,9.72-6.54.94-14.6-.84-20.92.04-2.9.41-4.39,2.07-8,2.47-8.54.94-15.86-3.86-25.77-2.47-2.81.4-4.42,2.37-6.94,2.52-3.49.21-4.76-2.08-7.04-2.41-10.15-1.45-17.04,3.29-25.65,2.35-41.06-4.51-80.78-2.92-122.15-2.35-9.15.13-18.13-1.78-26.89-1.26-5.9.34-12.95,3.85-17.45,3.67-4.59-.18-9.38-3.86-15.08-3.68-6.43.21-7.89,5-17.2,3.22-11.3-2.16-19.65-3.77-31.71-1.97-1.81.27-3.2,2.27-4.71,2.28-1.83,0-3.22-2.84-6.87-2.34-2.55.35-5.74,3.64-9.3,3.2-2.12-.27-3.6-2.79-7.06-3.24-8.86-1.15-18.38,2.82-23.34,2.52-2.53-.15-3.9-2.09-5.89-2.41-9.94-1.6-27.71-5.77-36.94-3.27-15.49,4.19-21.56,1.19-35.28,3.15-2.67.38-4.23,2.27-5.85,2.44-2.55.26-20.98-3.59-26.7-3.54-5.06.05-13.49,3.6-16.3,3.62-2.9.02-4.48-2.49-7.17-3.22-.73-.2-12.92-.43-14.91-.45-13.47-.14-30.15,2.15-43.08,0-10.86-1.81-11.74.5-22.38.78-8.33.22-17.77-1.68-26.46-.59-4.12.52-7.5,3.18-10.61,3.46-4.71.44-6.63-2.77-10.47-2.56-3.13.17-6.55,3.4-10.61,3.51-8.25.24-25.55-4.36-31.28-3.32-16.19,2.94-18.4,1.92-33.89,0-8.34-1.04-15.2,2.23-19.73,2.25-1.53,0-6.51-3.36-10.56-3.51-4.47-.17-8.79,1.49-13.95,1.24-17.45-.85-35.1-1.41-52.88-1.98-8.75-.28-18.72,1.94-26.28,1.93-4.4,0-9.12-3.71-11.55-3.51-1.92.16-11.05,5.43-12.91,5.41-1.11-.01-3.8-2.26-8.21-1.99-3.63.23-5.04,2.1-8.03,2.5-11.9,1.6-30.12,1.76-41.94-.12-1.98-.32-3.35-2.26-5.89-2.41-3.51-.21-6.9,2.98-11.64,2.98-4.58,0-6.86-2.41-10.42-2.9-6.57-.91-15.28.6-22.24.11-5.91-.42-15.95-2.37-20.43-6.36-6.55-5.85-2.07-21.36-2.17-29.25-.09-7.19,1.22-23.36.74-27.77-.22-2-2.04-3.65-2.08-7.12-.07-5.23,3.54-8.09,3.73-11.68.2-3.86-3.02-5.8-2.56-10.48.26-2.64,2.14-4.15,2.5-6.91,1-7.72-.3-16.2,0-23.19.18-4.12,3.09-7.33,3.5-11.73.78-8.31-3.34-10.53-3.62-16.44-.17-3.64,1.55-6.46,1.01-10.13-.45-3.06-3.26-5.42-3.41-8.48-.18-3.52,2.04-4.71,2.4-7.03,1.92-12.38-4.21-22.99-3.52-33.7.25-3.8,2.97-6.02,3.5-9.41.91-5.79-.76-19.87.46-24.21.24-.85,4.54-9.6,4.9-10.03,4.67-5.66,22.67-3.55,29.48-4.3,9.61-1.06,4.87-2.25,15.95-.46,19.64,3.18,42.35,6.14,62.84,5.97,14.85-.12,26.92-7.13,43.15-4.82,2.81.4,4.56,2.52,6.93,2.52,2.67,0,4.32-2.59,6.99-2.59,3.68,0,7.84,3.59,15.21,2.52,2.6-.38,4.06-2.1,5.82-2.33,14.57-1.9,27.65-1.18,41.99-3.43,14.39-2.26,19.69-1.63,32.77,1.94,11.16,3.04,24.28-.25,35.88.22,5.22.21,11.96,2.23,17.13,2.11,7.48-.16,14.5-3.18,23.61-2.09,5.25.63,8.76,5.57,14.04,5.77,4,.16,12.73-1.67,17.26-2.37,23.09-3.55,53.15-4.54,76.86-3.26,5.4.29,10.5,2.96,15.19,3.46,12.42,1.33,25.82-3.55,38.52-3.68,6.48-.06,11.14,3.36,16.24,3.7,5.48.36,12.23-3.31,18.64-3.64,12.19-.64,20.78,5.08,32.6,3.48,1.97-.27,3.36-2.38,5.87-2.4,2.72-.01,5.33,2.78,8.42,3.35,5.48,1.02,17.47,1.89,22.91,1.3,13.03-1.41,26.63-2.49,39.45-4.8,2.27-.41,5.41-2.81,6.09-2.8,9.1.13,21.06,3.15,31.53,1.98,3.37-.37,6.06-2.6,7.97-2.45,2.82.23,11.04,6.17,13.99,5.9,1.64-.15,3.03-2.09,4.8-2.32,4.43-.57,8.34.27,13.19-.78,2.34-.51,5.35-2.76,6.56-2.75,1.77,0,3.13,2.62,5.72,2.35,2.14-.22,5.45-2.85,9.6-3.1,5.73-.35,17.88-1.12,23.13-.46,5.81.72,7.16,5.29,14.84,3.24,8.36-2.24,8.32-3.45,18.9-3.2,6.79.16,13.69-.33,19.82-.09,5.11.2,8.12,3.14,11.75,3.56,7.4.85,15.2-1.12,22.03-1.81,2.34-.24,6,2.93,9.31,3.07,4.27.18,8.53-2.09,13.91-1.18,3.64.61,4.9,3.6,9.38,3.58,3.71-.02,5.52-2.61,8.15-2.6s4.38,2.77,6.9,2.5c1.65-.18,3-2.06,4.8-2.33,6.53-.99,16.7-3.01,22.17-3.58,2.29-.24,13.9,3.13,20.93,2.43s9.46-4.78,18.48-3.45c1.73.26,12.76,3.59,14.37,4.26,2.58,1.07,5.97,5.75,9.67,6.64,4.2,13.76,9.28,29.42,3.54,43.29.5,10.92,1.69,23.77,3.44,34.75.32,1.98,2.24,3.34,2.4,5.88.29,4.44-3.24,5.9-3.62,9.41-.51,4.73,3.25,8.19,3.35,11.51.11,3.68-4.11,10.37-1.81,14.31ZM1017.49,258.67c-.1-4.44.15-8.93-.02-13.39-.63-17.39-.41-34.99.06-52.38.66-24.92,4.55-47.31.02-72.31-1.26-6.94,2.61-9.61,2.4-15.11-.18-4.65-3.86-8.39-3.67-13.91.13-3.64,3.48-7.89,3.3-9.12-.28-1.87-3.04-4.79-3.15-8.51-.18-5.97,4.74-23.55-3.27-25.84-8.88-2.54-17.46,3.2-26.63,2.16-6.49-.73-10.5-3.64-18.61-2.47-3.08.44-4.61,2.55-8.09,2.54s-4.75-2.05-7.05-2.42c-9.25-1.5-16.05,3.43-25.65,2.35-39.96-4.48-78.4-2.95-118.66-2.35-8.79.13-17.37-1.69-25.73-1.26-5.59.29-12.46,3.69-16.25,3.69-4.29,0-8.43-3.76-13.98-3.73s-8.49,3.95-14,3.71c-6.1-.26-14.71-3.32-22.61-3.24-5.84.06-15,3.23-18.13,3.23-2.9,0-4.46-3.02-8.05-2.48-21.92,3.29-44.47,10.08-67.61,5.8-3.63-.67-7.94-5.46-12.2-6.44s-19.59-2.15-23.42-1.12-6.34,4.67-11.15,5.21c-11.02,1.23-28.62-1.68-40.69,0-3.08.43-4.6,2.54-8.09,2.54-4.32,0-9.98-3.78-16.3-3.75-4.89.03-10.12,3.45-12.21,3.14-6.25-.94-14.23-4.32-19.29-5.32-15.59-3.09-21.6.6-34.84,2.34-10.94,1.43-38.15,4.56-47.89,3.52-4.79-.51-8.65-2.98-14.41-3.19-7.81-.27-23.13,1.81-29.71.71-3.3-.55-4.75-3.22-8.2-3.53-5.82-.52-7.79,4.4-13.79,3.15-3-.62-4.96-2.57-7.25-2.98-11.29-2.06-26.79-.19-38.35-1.25-3.08-.28-9.93-3.03-10.51-3.02-7.7.11-28.56,7.62-34.88,6.47-5.32-.97-7.96-3.36-15.25-2.32-3.6.52-4.93,2.96-8.16,3.49-4.42.72-26.58-1.57-27.31,1.82,1.56,5.74,8.36,4.37,11.69,5.75,12.84,5.34,11.81,5.33,25.89,7.89,1.17.21,12.6,3.71,13.39,4.08,4.17,1.9,10.7,15.12,14.52,16.93,2.91,1.38,8.65,2.35,12.41,3.89,1.82.74,2.85,3.09,5.61,3.71,3.23.73,6.79-.11,10.12.36,4.58.64,9.29,3.83,13.86,1.1s2.84-15.18,4.38-20.16c.3-.97,1.74-.92,2.16-1.78,1.55-3.24,1.85-7.47,6.54-8.37,10.95-2.09,12.18,3.06,19.29,7.44,6.56,4.04,13.95,3.76,12.5,13.77-.58,4-4.23,6.47-4.53,10.8-.89,13.02,12.03,18.17,22.9,20.2,12.61,2.35,24.6,3.85,37.1,6.05,7.84,1.38,20.92,8.37,29.13,6.86,1.77-.33,3.03-1.89,4.79-2.22,6.16-1.14,8.7,3.49,13.91,3.48,3.51-.01,8.08-3.23,10.46-3.02,2.88.25,10.18,5.6,13.07,6.25,10.6,2.42,14.17-1.98,22.07-4.03,2.98-.77,26.37.19,29.82,1.05,2.34.58,5.09,3.78,8.74,4.17s7.09-1.95,11.09-.72c1.85.57,5.44,4.99,8.69,6.46,8.92,4.02,15.75,1.4,24.1,2.69s13.57,5.46,24.26,2.21c.95-.29.72-1.93,1.68-2.22.84-.26,7.04-1.12,8.07-1.13,6.71-.09,13.84,5.44,9.2,11.63-9.59,12.8-35.39-1.93-48.36,6.37-5.26,3.37-10.42,19.51-9.03,25.28,2.97,12.34,11.39,9.51,19.98,11.45,16.39,3.7,37.93,12.67,51.31,23.23,9.88,7.8,10.58,23.7,13.43,35.19l5.47,4.15c17.39.27,34.83.49,52.23.34,3.16-.03,5.03-2,6.91-2,5.05,0,12.29,3.05,19.86,1.98,2.81-.4,4.53-2.5,6.92-2.51,2.73-.02,5.25,2.74,8.08,3.69,4.32,1.44,16.97.41,21.91-.37,2.94-.47,7.32-3.17,8.46-3.17,1.52,0,2.94,1.99,4.74,2.31,4.87.87,6.14-2.43,10.16-3.16,2.25-.4,20.72-.58,23.52-.31,4.86.47,9.01,3.61,12.82,3.62,4.01,0,6.99-3.09,11.65-3.64,3.26-.39,36.09-.04,37.91.52,7.27,2.24,15.61,4.21,23.88,3.03,2.57-.37,4.4-2.36,5.75-2.37,1.75-.02,4.95,3.2,8.3,3.43s7.26-1.42,11.54-1.19c17.78.98,31.34,3.23,49.98,0,2.09-.36,3.45-2.39,5.89-2.39s3.85,2.06,5.88,2.4c12.51,2.1,21.4-3.43,33.14-3.43ZM323.05,92.4c-5.04-5.03-13.81,3.16-7.34,7.98,4.63,3.45,12.48-2.85,7.34-7.98ZM319.36,121.74c-2.8-1.34-8.49-5.76-9.67-6.09-3.18-.9-6.9.25-10.17-.31-4.09-.7-10.02-5.58-14.1-6.87-15.51-4.9-24.73,5.02-10.36,10.35,9.92,3.68,17.79,4.09,27.56,6.22,22.71,4.96,47.62,17.7,70.27,22.91,5.51,1.27,15.02,1.19,20.62,2.67,3.24.86,9.86,5.52,13.34,6.46,6.11,1.66,22.65,4.19,19.67-6.76-1.88-6.92-9.79-5.66-14.89-7.34-11.43-3.76-14.1-3.93-25.71-5.73-4.81-.75-9.17-4.52-13.36-5.27-7.86-1.41-15.93-1.61-23.89-2.9-5.87-.95-10.56-4.38-14.51-5.29-6.05-1.39-8.26,1.09-14.8-2.05ZM331.21,157.06c2.32-2.34.67-8.71-2.06-10.78-3.33-2.53-6.92-1.19-10.53-2.28-2.77-.83-4.48-3.42-8.78-4.03-10.35-1.48-18.76-.23-28.18,3.06-1.82.64-4.02.06-6.05.94-7.28,3.14-.66,12.37,5.28,13.3,11.15,1.74,24.43-1.78,34.91-1.16,4.15.25,12.16,4.23,15.41.95ZM503.85,145.69c-4.47-.61-6.44,3-5.81,6.98l4.48-.17,1.33-6.81ZM510.85,150.34c4.35.19,8.79-1.16,12.25,2.05l2.82-3.65c-.62-3.97-13.01-4.07-14.56-1.95l-.51,3.55ZM487.84,160.53c.26.3,6.73,3.75,7.13,3.69l3.11-3.98c0-2.38-6.79-8.84-9.89-7.6-1.35.23-1.46,6.59-.35,7.89ZM450.1,154.03c-2.38-.48-6.93-.96-7.81,1.71.18,3.17-1.69,13.09,1.75,14.24,9.79,3.28,11.92-9.79,6.06-15.95ZM519,157.34c.4,9.61,14.75,10.79,19.68,3.85l-.95-3.38c-1.22-2.28-18.19-1.26-18.74-.48ZM244.98,164.62c-.28-.29-6.58-3.94-6.96-4.09-5.37-2.19-15.96.17-22.48.34-8.31.22-18.12,1.37-25.62,1.17-23.62-.62-48.33-4.66-72.22-2.45-8.92.82-12.53,3.42-10.44,12.88.61,2.77,3.89,8.36,5.97,10.35,11.22,10.75,27.61,9.24,41.78,10.63,8.83.86,17.52,1.93,25.75,3.37,22.12,3.88,45.89,3.4,67.17,8.53,4.76,1.15,9.57,2.26,13.55,5.08,1.41,1,8.22,7.97,8.36,9.17.34,3.07-2.9,13.88-4.72,16.38-2.8,3.85-25.57,12.39-31.23,14.19-3.35,1.07-11.36-.72-10.82,5.55l2.01,2.75,67.44,1.28c11.15,2.88,26.46,3.45,38.33,3.6,23.83.3,47.78-1.79,71.62-1.85,1.98-1.39,4.46-2.59,5.74-4.74.6-1,4.47-13.55,4.73-15.07,1.29-7.73.77-19.55-4.57-25.58-2.73-3.08-21.28-15.64-25.01-16.92-4.33-1.49-8.89-.07-11.79-3.35-4.28-4.84,1.64-7.36,5.9-9.39,4.22,2.92,9.29,3.04,13.65,4.97,13.4,5.93,26.54,13.96,33.95,26.61,8.3,14.16,3.06,13.35-2.46,25.17-1.06,2.28-.85,4.45-1.55,6.39-.47,1.31-5.08,2.42-.45,7.84,5.67,6.64,16.72-.88,22.07-1.23,4.63-.31,10.82,3.65,16.32,3.69,9.36.06,17.61-5.04,30.36-3.66,22.99,2.49,44.69,6.7,67.41,3.52,18.04-2.53,41.97,2.07,60.65.06,5.24-.56,7.51-3.84,8.45-9.01,2.15-11.9-4.52-21.54-14.57-26.82-9.95-5.22-20.81-6.43-30.57-10.19-14.15-5.45-14.79-9.77-33.23-7.59-3.48.41-11.92,6.62-13.94,9.36-1.35,1.84-1.52,4.41-2.91,6.4-1.56,2.24-5.09,3.55-5.82,4.96-.48.93-4.4,12.43-5.02,14.48-1.32,4.34,2.02,15.78-9.32,12.35-5.82-1.76-1.86-8.7-1.98-12-.3-7.88-1.56-17.7-6-24.29-3.17-4.7-8.1-6.63-11.45-10.68-5.65-6.85-3.17-11.54-13.76-15.36-13.28-4.8-26.32.79-36.51-2.16-3.12-.9-5.33-3.22-7.65-3.75-4.3-.99-9.41.44-13.67-.31-3.94-.7-15.22-6.05-18.92-6.9-10.23-2.36-18.84-.89-31.5-4.41-9.99-2.78-16.43-3.38-26.43-5.02-5.07-.83-9.61-3.69-15.24-3.5-5.35.18-7.02,3.77-11.65,3.74-3.57-.02-4.85-2.12-7.03-2.42-4.89-.67-19.22-1.94-21.33,4.21-3.23,9.44,12.73,9.97,17.36,11.4,3.91,1.21,18.04,10.04,20.27,13.51,2.73,4.24,4.96,16.25,4.85,21.3-.13,6.1-4.21,22.19-7.2,27.48-4.43,7.83-11.43,5.84-19.14,5.9-1.03-6.86,7.68-8.61,11.03-14.01.84-1.36,3.8-8.53,4.04-9.93,1.13-6.52-2.17-19.82-6.42-24.88-3.32-3.95-13.97-13.7-19.18-12.4-13,3.24.13,15.05,2.06,20.21,2.8,7.47,2.74,24.2-7.21,25.88-1.73-.98-1.64-2.31-1.84-4.01-.57-4.94-1.32-12.29-2.79-17.01-1.36-4.39-9.42-8.83-11.62-12.83-1.99-3.61-2.06-12.51-4.48-14.72-1.25-1.14-18.46-4.21-21.66-6.3-1.41-4.07,2.43-12.78-.48-15.84ZM507,191.32c-3.41,1.05-4.77,6.24-4.11,9.41,3.01,14.45,34.42,13.88,29.87-.67-1.89-6.03-12.97-6.13-17.53-6.94-2.43-.43-3.56-3.25-8.23-1.8Z"/>
    <path class="cls-1" d="M348.6,190.3c1.82,1.38,2.92,6.66,4.48,8.91,6.11,8.9,16.83,10.8,10.92,25.92-.84,2.16-3.12,7.27-4.33,9.88-1.28,2.78-9.73,13.9-11.9,14.89-2.49,1.14-8.26,1.44-8.19-2.32.03-1.49,6.85-10.29,7.86-13.15.85-2.4,2.87-13.58,2.66-15.85-.66-7.28-15.06-18.89-10.25-28.42,2.46-.97,6.55-1.53,8.75.13Z"/>
    <path class="cls-1" d="M463.65,209.19c2.43,2.7,9.91,12.14,10.05,15.13.13,2.73-2.44,7.49-3.33,10.76-.57,2.11.12,4.54-.34,6.43-.08.33-3.81,3.87-4.02,5.48-9.41-6.25-4.65-15.32-7.6-23.83-1.99-5.75-11.33-11.92-5.88-16.42,4.65-3.84,7.85-1.2,11.12,2.44Z"/>
    <path class="cls-1" d="M572.26,227.51c.31.28,3.32,6.89,3.5,7.57,1.32,5.21-1.71,13.41-8.24,11.76-3.35-6.45-10.58-14.16-9.9-21.18.7-2.01,3.93-3.25,5.97-2.92.49.08,8.31,4.44,8.68,4.77Z"/>
  </g>
  <g>
    <path class="cls-1" d="M54.35,312.58h17.96c7.56,0,12.59,4.38,12.59,10.9,0,4.6-2.14,8.1-7.17,9.47v.16c3.61,1.04,5.48,3.12,5.97,7.88.55,5.53.33,9.75,1.7,10.35v.38h-7.61c-.99-.44-1.09-4.82-1.42-9.03-.33-4.27-2.74-6.68-7.66-6.68h-6.41v15.71h-7.94v-39.15ZM62.29,329.88h8.43c4.33,0,6.46-2.25,6.46-5.37s-2.03-5.53-6.24-5.53h-8.65v10.89Z"/>
    <path class="cls-1" d="M142,312.58h28.8v6.68h-20.86v8.76h18.29v6.51h-18.29v10.57h21.02v6.62h-28.96v-39.15Z"/>
    <path class="cls-1" d="M225.38,332.29c0-11.61,7.23-20.48,18.78-20.48,9.64,0,15.33,5.75,16.15,13.2h-7.88c-.71-3.94-3.67-6.52-8.27-6.52-7.23,0-10.68,6.02-10.68,13.8s4.16,13.74,10.73,13.74c4.65,0,7.94-2.79,8.43-6.9h7.77c-.22,3.45-1.7,6.79-4.33,9.25-2.68,2.52-6.46,4.16-11.88,4.16-11,0-18.83-8.49-18.83-20.26Z"/>
    <path class="cls-1" d="M314.84,332.23c0-11.72,7.34-20.42,18.89-20.42s18.83,8.71,18.83,20.42-7.28,20.37-18.83,20.37-18.89-8.65-18.89-20.37ZM344.46,332.23c0-7.83-3.5-13.91-10.68-13.91s-10.84,6.08-10.84,13.91,3.67,13.85,10.84,13.85,10.68-6.08,10.68-13.85Z"/>
    <path class="cls-1" d="M408.89,312.58h17.96c7.56,0,12.59,4.38,12.59,10.9,0,4.6-2.14,8.1-7.17,9.47v.16c3.61,1.04,5.48,3.12,5.97,7.88.55,5.53.33,9.75,1.7,10.35v.38h-7.61c-.99-.44-1.09-4.82-1.42-9.03-.33-4.27-2.74-6.68-7.66-6.68h-6.41v15.71h-7.94v-39.15ZM416.83,329.88h8.43c4.33,0,6.46-2.25,6.46-5.37s-2.03-5.53-6.24-5.53h-8.65v10.89Z"/>
    <path class="cls-1" d="M496.54,312.58h15.27c10.46,0,17.19,8.43,17.19,19.98,0,6.35-2.14,11.94-6.24,15.38-2.9,2.41-6.68,3.78-11.61,3.78h-14.62v-39.15ZM510.61,344.88c7.45,0,10.35-4.54,10.35-12.32s-3.39-13.19-10.13-13.19h-6.35v25.51h6.13Z"/>
    <path class="cls-1" d="M644.8,339.62h7.77c.55,4.71,3.23,6.57,8.81,6.57,4.05,0,7.61-1.42,7.61-5.04,0-3.83-3.72-4.6-9.69-5.97-7.01-1.59-13.41-3.45-13.41-11.61,0-7.72,6.3-11.72,15-11.72s14.51,4.33,15.11,12.21h-7.61c-.44-3.94-3.5-5.91-7.55-5.91-4.27,0-7.06,1.81-7.06,4.6,0,3.18,2.74,4.11,8.54,5.37,8.05,1.75,14.62,3.67,14.62,12.1,0,7.94-6.41,12.37-15.22,12.37-10.62,0-16.64-4.71-16.92-12.98Z"/>
    <path class="cls-1" d="M730.04,312.58h31.48v6.68h-11.77v32.47h-7.94v-32.47h-11.77v-6.68Z"/>
    <path class="cls-1" d="M813.91,332.23c0-11.72,7.34-20.42,18.89-20.42s18.83,8.71,18.83,20.42-7.28,20.37-18.83,20.37-18.89-8.65-18.89-20.37ZM843.53,332.23c0-7.83-3.5-13.91-10.68-13.91s-10.84,6.08-10.84,13.91,3.67,13.85,10.84,13.85,10.68-6.08,10.68-13.85Z"/>
    <path class="cls-1" d="M907.97,312.58h17.96c7.56,0,12.59,4.38,12.59,10.9,0,4.6-2.13,8.1-7.17,9.47v.16c3.61,1.04,5.47,3.12,5.97,7.88.55,5.53.33,9.75,1.7,10.35v.38h-7.61c-.99-.44-1.09-4.82-1.42-9.03-.33-4.27-2.74-6.68-7.67-6.68h-6.41v15.71h-7.94v-39.15ZM915.91,329.88h8.43c4.33,0,6.46-2.25,6.46-5.37s-2.03-5.53-6.24-5.53h-8.65v10.89Z"/>
    <path class="cls-1" d="M995.62,312.58h28.8v6.68h-20.86v8.76h18.29v6.51h-18.29v10.57h21.02v6.62h-28.96v-39.15Z"/>
  </g>
  <g>
    <path class="cls-1" d="M679.54,141.73l-.58-.65v-5.7l.72-2.45-.43-.29v-5.19l.43-1.3v-4.04l-.22-.72-.14-1.73.58-1.59-.79-2.02.29-2.09-.22-.5v-9.23l.65-1.73-1.01-1.08-.22-2.38-1.01-.65-2.02-.79-3.03-.72h-5.19l.07-.79-2.74-1.59-.36-.07.14-1.37.94-.79,4.11-1.15h6.56l5.12.43,1.3-.29h6.34l2.96-.29,3.61.65h2.45l1.95.94.22.65-.79,1.44-.94.36.87,1.51-1.59.5h-4.18l-2.67.22-2.38.58-1.88,1.08-.58.79-.72,2.23v1.44l.29.36v20.69l-.58,2.23.58.72v3.53l-.29,1.73-.87-.22,1.15,2.38-.29,2.74.22,2.45-.72,3.17-.65,1.15-1.37.5-1.15-.07-1.8-1.01-.14-2.02Z"/>
    <path class="cls-1" d="M721.36,140.22l-1.23-2.09-.58-2.38.22-2.81-.94-1.3v-2.96l.29-2.52-.22-2.67.43-.72-.43-2.16.58-2.81-.65-.72.29-3.03-.29-.87v-7.57l.72-1.44.14-1.44,1.15-3.6-.58-1.3.87-1.66.94-1.08.43-1.44,1.44-1.37,1.73-.79,3.6-.65.43-.5,1.44-.36h8.65l3.17.36,3.39,1.08,1.01.58,1.8,1.95,1.37,1.66.36,2.09.94,1.51.22,2.52.5.94v2.74l-.14,1.37.43,3.03-.36,1.66v1.73l.22.87v8.58l-.65.79.79,2.23-.36,5.34-.65.58.5.65-.22,2.09-.43,1.87v1.59l-1.15,1.95.07.5-.72,1.3-1.44,1.08-4.69,2.6-1.88.58h-11.68l-3.24-.65-2.67-1.15-2.96-3.75ZM729.72,138.92l2.16.58,2.31.22h2.88l3.53-.43,1.59-.72,1.73-1.51,1.23-2.67.5-1.95.5-3.46v-3.03l-.22-1.08.22-.65-.29-3.17.29-2.23-.29-3.32.29-2.67-.29-1.44v-4.47l.29-1.44-.65-3.1v-1.44l-1.3-2.09-3.03-2.02-4.97-.87-3.68.5-3.03.87-1.8,1.01-.36.36-.94,3.24-.87.14v21.05l-.5,2.38.5,1.95v1.23l-.22.94.5,2.74-.87.58.65.5,1.23,1.73,1.23,2.38,1.66,1.37Z"/>
    <path class="cls-1" d="M772.91,142.96l-.43-1.23.29-3.89-.29-2.52.29-2.31-.29-.94.36-2.24-.36-.65v-5.12l.65-1.37-.65-1.59v-3.82l.29-1.15-.29-2.45.22-.79.72-.87-.94-1.08v-5.48l.65-1.87-.65-.79.22-1.87v-3.68l.58-.14-.79-2.02.65-1.87.94-1.01,1.08-.58,1.73-.22,3.17,1.08,1.01.72.43,1.37-.07.87,1.88,1.95.29.79.14,1.23.65.43.65,1.59.29,2.31,1.51,1.15.5.87-.22,1.59,1.37,1.08.22.72v1.66l2.09,2.02.14,1.15v1.44l1.08.22.43,1.37,1.59,2.81.22,1.44,1.08,2.16.72.72,1.8,3.39,1.44-.43.65-.87.29-1.66.43-.87v-3.53l.29-2.16-.29-.94v-11.03l-.22-1.8.43-1.15-.22-.87v-5.48l1.23-1.44-1.23-.43.72-2.02.58-.29,1.95-.22,1.8.43.65,1.3-.72,1.3.94,2.02v4.47l-.43,1.44.58,1.95-.14,1.08-.72.36.58,1.87v4.61l.29,2.96-.58,1.44.58,3.1-.43,1.37-.94.79,1.08.86v3.17l.29.65v10.17l-.29,1.37.29,1.37-.14,1.3-.43,1.3-.79,1.08-2.09,1.01h-1.3l-2.16-.65-1.15-.87-1.08-2.38-1.08-1.59-.58-1.59-1.15-1.59-.79-3.17-1.23-1.37-1.66-3.75.36-1.23-2.31-2.52-.22-1.3.5-.65-.94-.65-.72-.72-1.01-2.67-1.44-2.02.22-.94-.58-1.08-1.51-1.59v-1.23l.79-.5-1.37-.72-2.16-.65-.79.14-1.08,1.51.43,1.01v4.69l-.94,1.66.79,1.44-.29,3.53.43,1.23-.29,1.66.29,1.66-.5,1.59.29-.72.22,2.96-.94,2.52.79.72.14.94-.65,2.23.65,1.23-.65,2.88-1.23,1.95-3.03-.36-.5-.29-.94-.94Z"/>
    <path class="cls-1" d="M827.06,142.16l-.36-1.73v-4.33l-.29-1.23.58-1.44-.29-1.01.29-2.6-.22-1.73.22-2.24-.29-.72.29-4.54v-6.42l-.22-1.51.14-1.73.43-1.8-.65-.87v-3.39l.29-2.09-.29-1.23v-4.18l.43-4.11,1.37-1.37,1.3-.65h24.8l.72.36,3.32.94,1.15,1.95-.87,1.23-1.44.72-8.58.79h-6.13l-2.81-.36-1.66.36-2.16.79-1.73,1.08-1.01,1.15v3.03l-1.23,1.44,1.23,1.23v2.02l-.58,1.01.87.72.5,2.67,2.52,1.15,2.23.22h16.08l1.3.22.65.36,1.01,1.08.72,2.09-.72,1.01-1.08.58-1.8.58-1.73.22-1.95-.5h-11.61l-.43-.43-1.66.79-2.31.29-.65.72-1.01,1.66-.36,1.51.29,1.88-.87,1.95.58,2.02v.87l-1.37.29,1.51,1.95v1.73l-.29.79,1.37,2.31,2.16,2.02,1.23.5,2.88-.5h5.41l3.39-.29,1.44.29h6.13l1.01.22,1.3,1.15-.29,1.3v1.88l-1.73.86-3.17.36h-14.64l-1.51-.36-.79.36h-6.85l-2.09-1.66-1.51-.65.07-1.01Z"/>
    <path class="cls-1" d="M930.88,140.43l-1.3-1.23-1.88-2.31-.79-1.66-.36-1.3.58-1.01-1.23-3.68.5-1.08-.5-1.73.14-.94.65-1.08-.22-1.01.72-2.23,1.37-1.88.22.22,1.08-2.09,1.3-.29-.22-.87.36-1.8.94-1.01.36-1.01-.5-1.37-1.8-2.96-.22-2.31.07-1.08-.5-2.02.29-.79,1.01-1.15-.72-.79.43-2.38.87-1.37,1.59-1.51-.72-.79,4.25-2.45,2.6-.72,2.16-.29,2.31-.58,6.92.79,1.95.43,1.23.87.94,1.44,1.87.65.5.58v2.38l-.22.65-1.08,1.23-1.8.29-2.88-.94-1.08-.87-.58-.79-4.04-.36-3.39.43-1.37.5-1.3.79-1.23,1.08-.87,1.37-.58,2.31-.65,1.59.5-.72.43,2.74,1.01,2.31,6.71,5.19.29,1.23-.58.94-.58,1.73-1.37.72-5.19.86-2.38.87-2.52,6.78-.43,1.66.94,1.3.79,3.39,1.08,2.23.87.87,5.48,3.6h3.82l3.39-.36,1.51-2.38.87-.72.5-1.51-.79-.79-1.95-3.89-.22-1.15.22-3.1,1.44-.65h1.66l1.23.72,2.45,2.74,4.69,8.44.36,1.37-.86.72,1.8.65.65,2.02-.87,2.38-.43.22-2.24-.36-1.87-1.15h-1.95l-1.37-.43-.86,1.73-2.31.94-3.97.65h-4.9l-1.59-.29-2.45-1.3-3.97-1.37-1.23-1.08-1.01-1.59Z"/>
    <path class="cls-1" d="M693.46,228.25l-.58-.65v-5.7l.72-2.45-.43-.29v-5.19l.43-1.3v-4.04l-.22-.72-.14-1.73.58-1.59-.79-2.02.29-2.09-.22-.5v-9.23l.65-1.73-1.01-1.08-.22-2.38-1.01-.65-2.02-.79-3.03-.72h-5.19l.07-.79-2.74-1.59-.36-.07.14-1.37.94-.79,4.11-1.15h6.56l5.12.43,1.3-.29h6.34l2.96-.29,3.61.65h2.45l1.95.94.22.65-.79,1.44-.94.36.87,1.51-1.59.5h-4.18l-2.67.22-2.38.58-1.88,1.08-.58.79-.72,2.23v1.44l.29.36v20.69l-.58,2.23.58.72v3.53l-.29,1.73-.87-.22,1.15,2.38-.29,2.74.22,2.45-.72,3.17-.65,1.15-1.37.5-1.15-.07-1.8-1.01-.14-2.02Z"/>
    <path class="cls-1" d="M764.76,226.52l-2.45-4.61-.29-1.66.5-1.51-.94-.79v-2.52l.43-.29-.65-1.66.65-2.74v-3.03l-.65-1.73.87-2.23-.58-1.66v-9.52l-.29-2.45.29-1.51v-2.6l.29-1.3-.22-.72v-2.02l.36-1.01.29-2.16,1.01-.72,3.6.43.87,3.03.5.43v1.59l-.22,1.01.29,3.75-.58.72.5,1.95-1.23.72,1.08.94.14.79-.14.94-.72,1.51.94,2.31-.58,2.02.58.65v5.41l-1.23,1.15,1.23,2.38-.29,3.25.29,2.96v2.96l.36.94,1.66,2.52,2.24,2.31,2.6,1.66h5.33l2.31-.43,4.47-3.46.72-2.24,1.01-1.51v-6.2l.72-1.37-.5-1.23-.36-.43.43-1.8-.43-1.87.79-2.6-.72-1.73.14-.5v-3.46l-.29-3.39.22-1.8v-3.53l.43-1.44-.36-3.32v-2.81l1.73-1.51-.36-1.37,1.37-.58,2.31.5.94,1.23.72,1.73v1.3l-.29.87v3.03l.29,3.68v2.67l-.22,2.09.22,2.67v10.74l-.29,2.6.22,1.23-.65,2.6.72,1.44-.14,1.51-1.23,3.89-.14,1.73-.36.87-2.09,2.38-.65,1.23-5.41,3.39-2.31.94-3.1.5h-3.46l-2.52-.29-3.1-.79-2.96-1.37-2.31-1.73-1.37-1.88Z"/>
    <path class="cls-1" d="M845.08,229.4l-.22-.87-.65-1.23v-4.25l.29-3.25-.29-.94v-19.83l.22-1.51-.22-2.74.22-1.08v-8.65l-.22-1.15.65-2.45-.29-.07.14-1.8,1.44-1.37,2.23-.79h11.61l2.16.14,2.74.43,2.45.87,2.88,1.66,1.37,1.08,1.95,2.09,1.08,2.02,1.01,3.17-.29,1.08.43,3.32v2.45l-1.15,2.45-.07.72-.72,2.02-1.88,1.88-.43.94-2.81,2.67v4.33l1.15.72,2.38,3.75,1.44,2.96.43,2.16-.65.58.65.5,2.45,2.59.22.65v1.08l1.44,1.88v2.09l-.29.5-.07.79-1.37.58-2.09-.14-1.73-1.15-.94-1.15-1.66-3.32-1.08-1.8-.22-.79.29-.72-2.02-2.45-3.75-7.35-.43-2.52-3.1-1.87-5.55-1.44-3.24,3.32.22,2.67-.14,2.81v3.46l-.36,3.39.29.43v5.33l-1.59,1.59-1.51.58-1.01.14-1.37-.43-.43-.72ZM852.51,200.2l2.24.43h8.8l4.54-1.8-.07-1.08,1.08-1.87.5-1.87v-1.73l-.22-1.59-1.15-3.75-3.32-2.09-.22-.65-2.96-1.44h-6.56l-1.08-.22-1.88,1.44-.72.07.5,1.37-.58,1.3-.22,3.68-.87,1.73.87,1.08-.43,2.38.43,2.02-.22,1.08.29.5,1.23,1.01Z"/>
    <path class="cls-1" d="M927.13,229.47l-.43-1.23.29-3.89-.29-2.52.29-2.31-.29-.94.36-2.23-.36-.65v-5.12l.65-1.37-.65-1.59v-3.82l.29-1.15-.29-2.45.22-.79.72-.87-.94-1.08v-5.48l.65-1.87-.65-.79.22-1.87v-3.68l.58-.14-.79-2.02.65-1.87.94-1.01,1.08-.58,1.73-.22,3.17,1.08,1.01.72.43,1.37-.07.87,1.88,1.95.29.79.14,1.23.65.43.65,1.59.29,2.31,1.51,1.15.5.87-.22,1.59,1.37,1.08.22.72v1.66l2.09,2.02.14,1.15v1.44l1.08.22.43,1.37,1.59,2.81.22,1.44,1.08,2.16.72.72,1.8,3.39,1.44-.43.65-.87.29-1.66.43-.87v-3.53l.29-2.16-.29-.94v-11.03l-.22-1.8.43-1.15-.22-.87v-5.48l1.23-1.44-1.23-.43.72-2.02.58-.29,1.95-.22,1.8.43.65,1.3-.72,1.3.94,2.02v4.47l-.43,1.44.58,1.95-.14,1.08-.72.36.58,1.87v4.61l.29,2.96-.58,1.44.58,3.1-.43,1.37-.94.79,1.08.87v3.17l.29.65v10.17l-.29,1.37.29,1.37-.14,1.3-.43,1.3-.79,1.08-2.09,1.01h-1.3l-2.16-.65-1.15-.87-1.08-2.38-1.08-1.59-.58-1.59-1.15-1.59-.79-3.17-1.23-1.37-1.66-3.75.36-1.23-2.31-2.52-.22-1.3.5-.65-.94-.65-.72-.72-1.01-2.67-1.44-2.02.22-.94-.58-1.08-1.51-1.59v-1.23l.79-.5-1.37-.72-2.16-.65-.79.14-1.08,1.51.43,1.01v4.69l-.94,1.66.79,1.44-.29,3.53.43,1.23-.29,1.66.29,1.66-.5,1.59.29-.72.22,2.96-.94,2.52.79.72.14.94-.65,2.24.65,1.23-.65,2.88-1.23,1.95-3.03-.36-.5-.29-.94-.94Z"/>
  </g>
</svg>